{"title":"Some.Guy.Who.Kills.People.2011.DVDRiP.XviD.AC3-SiC.","uid":6884603,"size":1589135816,"categoryP":"video","categoryS":"movies","magnet":"?xt=urn:btih:a9512b964c79807875a58794821299e5215b027e&amp;dn=Some.Guy.Who.Kills.People.2011.DVDRiP.XviD.AC3-SiC.&amp;tr=udp%3A%2F%2Ftracker.openbittorrent.com%3A80&amp;tr=udp%3A%2F%2Fopen.demonii.com%3A1337&amp;tr=udp%3A%2F%2Ftracker.coppersurfer.tk%3A6969&amp;tr=udp%3A%2F%2Fexodus.desync.com%3A6969","seeders":0,"leechers":0,"uploader":"moviesp2p","files":108,"time":1323736465,"description":"\nIMDB Link:\n &lt;a href=&quot;\nhttp://www.imdb.com/title/tt1568341/&quot; rel=&quot;nofollow&quot; target=&quot;_NEW&quot;&gt;\nhttp://www.imdb.com/title/tt1568341/&lt;/a&gt;\n\n\n\nDescription:\n\nSome Guy Who Kills People is about Ken Boyd, a lonely man fresh out of the loony bin, who sets out to kill those he deems responsible for his miserable life.\n\n\n\nMediaInfo:\n\nGeneral\n\nComplete name                    : Some.Guy.Who.Kills.People.2011.DVDRiP.XviD.AC3-SiC.avi\n\nFormat                           : AVI\n\nFormat/Info                      : Audio Video Interleave\n\nFile size                        : 1.46 GiB\n\nDuration                         : 1h 37mn\n\nOverall bit rate                 : 2 138 Kbps\n\n\n\nVideo\n\nID                               : 0\n\nFormat                           : MPEG-4 Visual\n\nFormat profile                   : Advanced Simple@L5\n\nFormat settings, BVOP            : 1\n\nFormat settings, QPel            : No\n\nFormat settings, GMC             : No warppoints\n\nFormat settings, Matrix          : Default (H.263)\n\nCodec ID                         : XVID\n\nCodec ID/Hint                    : XviD\n\nDuration                         : 1h 37mn\n\nBit rate                         : 1 682 Kbps\n\nWidth                            : 720 pixels\n\nHeight                           : 400 pixels\n\nDisplay aspect ratio             : 16:9\n\nFrame rate                       : 23.976 fps\n\nColor space                      : YUV\n\nChroma subsampling               : 4:2:0\n\nBit depth                        : 8 bits\n\nScan type                        : Progressive\n\nCompression mode                 : Lossy\n\nBits/(Pixel*Frame)               : 0.244\n\nStream size                      : 1.15 GiB (79%)\n\nWriting library                  : XviD 1.2.1 (UTC 2008-12-04)\n\n\n\nAudio\n\nID                               : 1\n\nFormat                           : AC-3\n\nFormat/Info                      : Audio Coding 3\n\nMode extension                   : CM (complete main)\n\nCodec ID                         : 2000\n\nDuration                         : 1h 37mn\n\nBit rate mode                    : Constant\n\nBit rate                         : 448 Kbps\n\nChannel(s)                       : 6 channels\n\nChannel positions                : Front: L C R, Side: L R, LFE\n\nSampling rate                    : 48.0 KHz\n\nBit depth                        : 16 bits\n\nCompression mode                 : Lossy\n\nStream size                      : 313 MiB (21%)\n\nAlignment                        : Aligned on interleaves\n\nInterleave, duration             : 64 ms (1.53 video frames)\n\nInterleave, preload duration     : 192 ms\n\nTitle                            : VTS_01_1 T80 3_2ch 448Kbps DELAY 0ms","torrent":{"xt":"urn:btih:a9512b964c79807875a58794821299e5215b027e","amp;dn":"Some.Guy.Who.Kills.People.2011.DVDRiP.XviD.AC3-SiC.","amp;tr":["udp%3A%2F%2Ftracker.openbittorrent.com%3A80","udp%3A%2F%2Fopen.demonii.com%3A1337","udp%3A%2F%2Ftracker.coppersurfer.tk%3A6969","udp%3A%2F%2Fexodus.desync.com%3A6969"],"infoHash":"a9512b964c79807875a58794821299e5215b027e","infoHashBuffer":{"type":"Buffer","data":[169,81,43,150,76,121,128,120,117,165,135,148,130,18,153,229,33,91,2,126]},"announce":[],"urlList":[]}}